<svg width="151" height="16" viewBox="0 0 151 16" fill="none" xmlns="http://www.w3.org/2000/svg">
<path d="M0.74 0.999999H3.96V10.12L10.64 0.999999H13.68V15H10.48V5.9L3.8 15H0.74V0.999999ZM27.4258 15V8.56L24.2058 13.96H22.8858L19.7458 8.54V15H16.9258V4.24H20.1858L23.6258 10.46L27.2858 4.24H30.2058L30.2458 15H27.4258ZM42.7944 4.24V15H40.0144V11.92H37.7144L35.6744 15H32.3544L34.8144 11.48C34.0677 11.1867 33.4944 10.7667 33.0944 10.22C32.7077 9.66 32.5144 8.98667 32.5144 8.2C32.5144 6.93333 32.9677 5.96 33.8744 5.28C34.7944 4.58667 36.0544 4.24 37.6544 4.24H42.7944ZM37.7144 6.78C37.0477 6.78 36.541 6.9 36.1944 7.14C35.861 7.38 35.6944 7.76667 35.6944 8.3C35.6944 8.83333 35.8544 9.22667 36.1744 9.48C36.5077 9.72 37.0077 9.84 37.6744 9.84H40.0144V6.78H37.7144ZM68.277 7.96C68.277 9.81333 67.6437 11.2733 66.377 12.34C65.1237 13.3933 63.317 13.98 60.957 14.1V15.62H57.977V14.08C55.6037 13.9467 53.7837 13.3533 52.517 12.3C51.2637 11.2333 50.637 9.78667 50.637 7.96C50.637 6.12 51.2637 4.68 52.517 3.64C53.7837 2.58667 55.6037 1.98667 57.977 1.84V0.4H60.957V1.82C63.317 1.95333 65.1237 2.55333 66.377 3.62C67.6437 4.68667 68.277 6.13333 68.277 7.96ZM60.957 11.56C62.3704 11.4267 63.4237 11.0667 64.117 10.48C64.8104 9.88 65.157 9.03333 65.157 7.94C65.157 5.80667 63.757 4.62 60.957 4.38V11.56ZM53.777 7.96C53.777 10.0667 55.177 11.2667 57.977 11.56V4.38C56.5504 4.51333 55.4904 4.87333 54.797 5.46C54.117 6.03333 53.777 6.86667 53.777 7.96ZM74.6409 4.08C76.3076 4.08 77.5876 4.48 78.4809 5.28C79.3743 6.06667 79.8209 7.26 79.8209 8.86V15H76.9009V13.66C76.3143 14.66 75.2209 15.16 73.6209 15.16C72.7943 15.16 72.0743 15.02 71.4609 14.74C70.8609 14.46 70.4009 14.0733 70.0809 13.58C69.7609 13.0867 69.6009 12.5267 69.6009 11.9C69.6009 10.9 69.9743 10.1133 70.7209 9.54C71.4809 8.96667 72.6476 8.68 74.2209 8.68H76.7009C76.7009 8 76.4943 7.48 76.0809 7.12C75.6676 6.74667 75.0476 6.56 74.2209 6.56C73.6476 6.56 73.0809 6.65333 72.5209 6.84C71.9743 7.01333 71.5076 7.25333 71.1209 7.56L70.0009 5.38C70.5876 4.96667 71.2876 4.64667 72.1009 4.42C72.9276 4.19333 73.7743 4.08 74.6409 4.08ZM74.4009 13.06C74.9343 13.06 75.4076 12.94 75.8209 12.7C76.2343 12.4467 76.5276 12.08 76.7009 11.6V10.5H74.5609C73.2809 10.5 72.6409 10.92 72.6409 11.76C72.6409 12.16 72.7943 12.48 73.1009 12.72C73.4209 12.9467 73.8543 13.06 74.4009 13.06ZM93.0313 15V8.56L89.8113 13.96H88.4913L85.3513 8.54V15H82.5313V4.24H85.7913L89.2313 10.46L92.8913 4.24H95.8113L95.8513 15H93.0313ZM98.8398 4.24H101.94V10.64L107.18 4.24H110.04V15H106.94V8.6L101.72 15H98.8398V4.24ZM123.359 4.24V15H120.239V6.8H116.839L116.739 8.7C116.686 10.1133 116.552 11.2867 116.339 12.22C116.126 13.1533 115.779 13.8867 115.299 14.42C114.819 14.9533 114.152 15.22 113.299 15.22C112.846 15.22 112.306 15.14 111.679 14.98L111.839 12.42C112.052 12.4467 112.206 12.46 112.299 12.46C112.766 12.46 113.112 12.2933 113.339 11.96C113.579 11.6133 113.739 11.18 113.819 10.66C113.899 10.1267 113.959 9.42667 113.999 8.56L114.159 4.24H123.359ZM126.359 4.24H129.459V10.64L134.699 4.24H137.559V15H134.459V8.6L129.239 15H126.359V4.24ZM150.119 4.24V15H147.339V11.92H145.039L142.999 15H139.679L142.139 11.48C141.392 11.1867 140.819 10.7667 140.419 10.22C140.032 9.66 139.839 8.98667 139.839 8.2C139.839 6.93333 140.292 5.96 141.199 5.28C142.119 4.58667 143.379 4.24 144.979 4.24H150.119ZM145.039 6.78C144.372 6.78 143.865 6.9 143.519 7.14C143.185 7.38 143.019 7.76667 143.019 8.3C143.019 8.83333 143.179 9.22667 143.499 9.48C143.832 9.72 144.332 9.84 144.999 9.84H147.339V6.78H145.039Z" fill="white"/>
</svg>
