<svg width="136" height="16" viewBox="0 0 136 16" fill="none" xmlns="http://www.w3.org/2000/svg">
<path d="M22.82 0.999999L18.24 15H14.76L11.68 5.52L8.5 15H5.04L0.44 0.999999H3.8L6.96 10.84L10.26 0.999999H13.26L16.46 10.92L19.72 0.999999H22.82ZM26.9786 5.66C27.3519 5.14 27.8519 4.74667 28.4786 4.48C29.1186 4.21333 29.8519 4.08 30.6786 4.08V6.96C30.3319 6.93333 30.0986 6.92 29.9786 6.92C29.0853 6.92 28.3853 7.17333 27.8786 7.68C27.3719 8.17333 27.1186 8.92 27.1186 9.92V15H23.9986V4.24H26.9786V5.66ZM42.9761 9.66C42.9761 9.7 42.9561 9.98 42.9161 10.5H34.7761C34.9228 11.1667 35.2694 11.6933 35.8161 12.08C36.3628 12.4667 37.0428 12.66 37.8561 12.66C38.4161 12.66 38.9094 12.58 39.3361 12.42C39.7761 12.2467 40.1828 11.98 40.5561 11.62L42.2161 13.42C41.2028 14.58 39.7228 15.16 37.7761 15.16C36.5628 15.16 35.4894 14.9267 34.5561 14.46C33.6228 13.98 32.9028 13.32 32.3961 12.48C31.8894 11.64 31.6361 10.6867 31.6361 9.62C31.6361 8.56667 31.8828 7.62 32.3761 6.78C32.8828 5.92667 33.5694 5.26667 34.4361 4.8C35.3161 4.32 36.2961 4.08 37.3761 4.08C38.4294 4.08 39.3828 4.30667 40.2361 4.76C41.0894 5.21333 41.7561 5.86667 42.2361 6.72C42.7294 7.56 42.9761 8.54 42.9761 9.66ZM37.3961 6.44C36.6894 6.44 36.0961 6.64 35.6161 7.04C35.1361 7.44 34.8428 7.98667 34.7361 8.68H40.0361C39.9294 8 39.6361 7.46 39.1561 7.06C38.6761 6.64667 38.0894 6.44 37.3961 6.44ZM51.5933 4.08C52.9266 4.08 53.9999 4.48 54.8133 5.28C55.6399 6.08 56.0533 7.26667 56.0533 8.84V15H52.9333V9.32C52.9333 8.46667 52.7466 7.83333 52.3733 7.42C51.9999 6.99333 51.4599 6.78 50.7533 6.78C49.9666 6.78 49.3399 7.02667 48.8733 7.52C48.4066 8 48.1733 8.72 48.1733 9.68V15H45.0533V4.24H48.0333V5.5C48.4466 5.04667 48.9599 4.7 49.5733 4.46C50.1866 4.20667 50.8599 4.08 51.5933 4.08ZM64.1986 15.16C63.0519 15.16 62.0186 14.9267 61.0986 14.46C60.1919 13.98 59.4786 13.32 58.9586 12.48C58.4519 11.64 58.1986 10.6867 58.1986 9.62C58.1986 8.55333 58.4519 7.6 58.9586 6.76C59.4786 5.92 60.1919 5.26667 61.0986 4.8C62.0186 4.32 63.0519 4.08 64.1986 4.08C65.3319 4.08 66.3186 4.32 67.1586 4.8C68.0119 5.26667 68.6319 5.94 69.0186 6.82L66.5986 8.12C66.0386 7.13333 65.2319 6.64 64.1786 6.64C63.3653 6.64 62.6919 6.90667 62.1586 7.44C61.6253 7.97333 61.3586 8.7 61.3586 9.62C61.3586 10.54 61.6253 11.2667 62.1586 11.8C62.6919 12.3333 63.3653 12.6 64.1786 12.6C65.2453 12.6 66.0519 12.1067 66.5986 11.12L69.0186 12.44C68.6319 13.2933 68.0119 13.96 67.1586 14.44C66.3186 14.92 65.3319 15.16 64.1986 15.16ZM77.2769 4.08C78.6102 4.08 79.6835 4.48 80.4969 5.28C81.3235 6.08 81.7369 7.26667 81.7369 8.84V15H78.6169V9.32C78.6169 8.46667 78.4302 7.83333 78.0569 7.42C77.6835 6.99333 77.1435 6.78 76.4369 6.78C75.6502 6.78 75.0235 7.02667 74.5569 7.52C74.0902 8 73.8569 8.72 73.8569 9.68V15H70.7369V0.159999H73.8569V5.36C74.2702 4.94667 74.7702 4.63333 75.3569 4.42C75.9435 4.19333 76.5835 4.08 77.2769 4.08ZM97.1491 15.24C95.7224 15.24 94.4291 14.9333 93.2691 14.32C92.1224 13.6933 91.2157 12.8333 90.5491 11.74C89.8957 10.6333 89.5691 9.38667 89.5691 8C89.5691 6.61333 89.8957 5.37333 90.5491 4.28C91.2157 3.17333 92.1224 2.31333 93.2691 1.7C94.4291 1.07333 95.7291 0.76 97.1691 0.76C98.3824 0.76 99.4757 0.973333 100.449 1.4C101.436 1.82667 102.262 2.44 102.929 3.24L100.849 5.16C99.9024 4.06667 98.7291 3.52 97.3291 3.52C96.4624 3.52 95.6891 3.71333 95.0091 4.1C94.3291 4.47333 93.7957 5 93.4091 5.68C93.0357 6.36 92.8491 7.13333 92.8491 8C92.8491 8.86667 93.0357 9.64 93.4091 10.32C93.7957 11 94.3291 11.5333 95.0091 11.92C95.6891 12.2933 96.4624 12.48 97.3291 12.48C98.7291 12.48 99.9024 11.9267 100.849 10.82L102.929 12.74C102.262 13.5533 101.436 14.1733 100.449 14.6C99.4624 15.0267 98.3624 15.24 97.1491 15.24ZM114.037 15L111.337 11.1H111.177H108.357V15H105.117V0.999999H111.177C112.417 0.999999 113.49 1.20667 114.397 1.62C115.317 2.03333 116.024 2.62 116.517 3.38C117.01 4.14 117.257 5.04 117.257 6.08C117.257 7.12 117.004 8.02 116.497 8.78C116.004 9.52667 115.297 10.1 114.377 10.5L117.517 15H114.037ZM113.977 6.08C113.977 5.29333 113.724 4.69333 113.217 4.28C112.71 3.85333 111.97 3.64 110.997 3.64H108.357V8.52H110.997C111.97 8.52 112.71 8.30667 113.217 7.88C113.724 7.45333 113.977 6.85333 113.977 6.08ZM132.564 15L132.544 6.6L128.424 13.52H126.964L122.864 6.78V15H119.824V0.999999H122.504L127.744 9.7L132.904 0.999999H135.564L135.604 15H132.564Z" fill="white"/>
</svg>
